<?xml version="1.0" standalone="no"?>
<!DOCTYPE svg PUBLIC "-//W3C//DTD SVG 20010904//EN"
 "http://www.w3.org/TR/2001/REC-SVG-20010904/DTD/svg10.dtd">
<svg version="1.0" xmlns="http://www.w3.org/2000/svg"
 width="470.000000pt" height="470.000000pt" viewBox="0 0 470.000000 470.000000"
 preserveAspectRatio="xMidYMid meet">
<metadata>
Created by potrace 1.11, written by Peter Selinger 2001-2013
</metadata>
<g transform="translate(0.000000,470.000000) scale(0.100000,-0.100000)"
fill="#000000" stroke="none">
<path d="M1095 4048 c-235 -31 -483 -159 -654 -336 -143 -148 -277 -360 -321
-509 -7 -24 -16 -43 -19 -43 -4 0 -7 -8 -8 -17 -1 -10 -13 -58 -27 -107 -14
-48 -28 -105 -31 -125 -10 -67 -15 -96 -21 -126 -10 -52 -13 -387 -3 -460 15
-121 18 -140 23 -155 3 -8 7 -28 10 -45 13 -73 60 -225 104 -330 57 -137 234
-439 316 -540 9 -11 39 -49 66 -85 113 -145 172 -214 317 -369 28 -31 72 -78
97 -106 l45 -50 342 0 341 0 19 24 c10 13 19 38 19 55 0 29 -23 56 -192 228
-186 187 -321 330 -424 449 -78 89 -96 111 -144 174 -25 33 -48 62 -51 65 -3
3 -39 53 -78 113 -105 157 -176 300 -220 441 -36 118 -43 167 -45 349 -1 81 2
147 7 147 4 0 6 3 3 8 -2 4 4 46 14 92 56 269 194 471 390 574 85 45 157 63
262 65 181 4 290 -49 473 -235 104 -104 115 -118 195 -238 61 -91 288 -417
308 -441 4 -5 28 -38 52 -73 45 -64 71 -79 113 -68 15 4 97 113 252 333 127
179 235 331 240 337 6 6 23 29 39 50 82 109 228 241 318 287 62 31 148 50 235
50 103 0 157 -13 261 -63 65 -31 99 -55 155 -112 40 -40 77 -79 82 -87 85
-119 135 -239 170 -410 24 -114 24 -333 0 -446 -3 -13 -7 -35 -11 -50 -29
-147 -151 -397 -271 -556 -23 -31 -43 -59 -43 -62 0 -3 -8 -15 -19 -27 -10
-13 -58 -70 -106 -128 -141 -170 -207 -242 -450 -488 -126 -128 -232 -243
-236 -255 -8 -33 1 -64 23 -84 18 -16 47 -18 346 -19 253 -1 332 2 349 12 19
12 73 66 148 149 15 17 46 50 69 75 23 25 78 88 121 140 44 52 82 97 85 100
20 20 161 216 222 310 83 127 193 345 233 460 26 72 74 244 80 285 31 196 39
415 20 565 -4 30 -8 71 -9 90 -2 19 -6 44 -9 55 -4 11 -9 36 -13 55 -19 111
-74 271 -134 394 -175 358 -472 615 -801 690 -113 26 -132 29 -252 31 -304 5
-554 -103 -796 -346 -94 -95 -217 -267 -286 -401 -32 -61 -41 -69 -52 -40 -23
59 -164 278 -226 351 -122 142 -269 262 -407 331 -61 31 -230 93 -230 85 0 -2
-15 1 -32 6 -43 13 -266 18 -343 7z"/>
</g>
</svg>
